<svg width="25" height="24" viewBox="0 0 25 24" fill="none" xmlns="http://www.w3.org/2000/svg">
<g id="icon">
<path id="Vector" d="M21.2494 16.4765V19.1862C21.2505 19.4377 21.1988 19.6867 21.0979 19.9172C20.9969 20.1477 20.8488 20.3546 20.663 20.5247C20.4773 20.6947 20.258 20.8242 20.0193 20.9048C19.7805 20.9854 19.5275 21.0153 19.2765 20.9927C16.4915 20.6907 13.8164 19.7409 11.466 18.2197C9.27929 16.8329 7.42534 14.9827 6.0358 12.8003C4.50627 10.4439 3.55442 7.76107 3.25735 4.96915C3.23473 4.71938 3.26447 4.46764 3.34468 4.22996C3.42489 3.99229 3.55381 3.77389 3.72323 3.58866C3.89265 3.40343 4.09885 3.25544 4.32872 3.15411C4.55858 3.05278 4.80707 3.00032 5.05837 3.00009H7.77347C8.21269 2.99577 8.6385 3.151 8.97152 3.43683C9.30455 3.72267 9.52207 4.11961 9.58354 4.55366C9.69814 5.42084 9.91067 6.27229 10.2171 7.09177C10.3388 7.41507 10.3652 7.76642 10.293 8.1042C10.2208 8.44198 10.0531 8.75203 9.8098 8.99761L8.66041 10.1447C9.94877 12.406 11.8248 14.2784 14.0906 15.5642L15.24 14.4171C15.4861 14.1742 15.7967 14.0069 16.1352 13.9348C16.4736 13.8628 16.8257 13.8891 17.1496 14.0106C17.9707 14.3164 18.8239 14.5285 19.6928 14.6429C20.1324 14.7048 20.5339 14.9258 20.8209 15.2639C21.108 15.6019 21.2605 16.0335 21.2494 16.4765Z" stroke="white" stroke-width="2" stroke-linecap="round" stroke-linejoin="round"/>
</g>
</svg>
